# xmcd CD database file
#
# Track frame offsets:
#	150
#	11202
#	43659
#	79716
#	86829
#	106318
#	135158
#	153993
#	195912
#	209732
#	229869
#
# Disc length: 3162 seconds
#
# Revision: 0
# Processed by: cddbd v1.5.1PL0 Copyright (c) Steve Scherf et al.
# Submitted via: CDex 1.51
#
DISCID=880c580b
DTITLE=Way Out West - Footscray Station
DYEAR=2003
DGENRE=Jazz
TTITLE0=Footscray Station Platform 1
TTITLE1=Maribyrnong Sketch
TTITLE2=Is The Moon Really That Far Away?
TTITLE3=Platform 2
TTITLE4=I Found My Way
TTITLE5=Amasya
TTITLE6=If I Knew Where You Were
TTITLE7=Tones For Dung
TTITLE8=Platform 3
TTITLE9=Platform 4
TTITLE10=Footscray Station Platform 1 (Reprise)
EXTD=YEAR: 2003
EXTT0=
EXTT1=
EXTT2=
EXTT3=
EXTT4=
EXTT5=
EXTT6=
EXTT7=
EXTT8=
EXTT9=
EXTT10=
PLAYORDER=
